<svg width="34" height="34" viewBox="0 0 34 34" fill="none" xmlns="http://www.w3.org/2000/svg">
<path d="M6.93856 24.712C8.14019 26.1418 9.64011 27.2913 11.3331 28.0799C13.0261 28.8686 14.8711 29.2772 16.7388 29.2772C18.6065 29.2772 20.4515 28.8686 22.1445 28.0799C23.8375 27.2913 25.3374 26.1418 26.539 24.712L29.5613 27.2408C27.9913 29.115 26.0296 30.6222 23.8142 31.6564C21.5988 32.6906 19.1837 33.2265 16.7388 33.2265C14.2939 33.2265 11.8788 32.6906 9.66338 31.6564C7.44801 30.6222 5.48627 29.115 3.91631 27.2408L6.93856 24.712ZM14.5144 3.88664C12.6749 4.21198 10.9289 4.93603 9.39896 6.00797C7.86903 7.0799 6.59228 8.47373 5.65835 10.0916C4.72442 11.7095 4.15595 13.5122 3.99285 15.3731C3.82974 17.234 4.07596 19.1081 4.71421 20.8638L1.0125 22.2061C0.17492 19.9095 -0.14911 17.4573 0.0632197 15.022C0.27555 12.5867 1.01908 10.2276 2.24147 8.11065C3.46386 5.9937 5.1354 4.17041 7.13842 2.76913C9.14144 1.36784 11.4273 0.42262 13.835 0L14.5144 3.88664ZM28.7634 20.8638C29.4041 19.1082 29.6522 17.2336 29.4902 15.3718C29.3282 13.51 28.76 11.7064 27.8257 10.0878C26.8914 8.46933 25.6137 7.0753 24.0825 6.0039C22.5513 4.93251 20.8038 4.20979 18.9631 3.88664L19.6426 0C22.0486 0.425815 24.3324 1.37299 26.3335 2.77506C28.3347 4.17713 30.0048 6.00013 31.2266 8.11613C32.4485 10.2321 33.1925 12.5899 33.4064 15.0239C33.6203 17.458 33.2991 19.9094 32.4651 22.2061L28.7634 20.8638Z" fill="#038E43"/>
<path d="M17.6898 12.1181V15.5643L19.9848 14.2396C20.0168 13.8769 20.1636 13.5338 20.4038 13.2602C20.644 12.9865 20.9651 12.7965 21.3206 12.7177C21.6761 12.6389 22.0475 12.6754 22.3808 12.8219C22.7142 12.9684 22.9921 13.2174 23.1744 13.5326C23.3567 13.8478 23.4338 14.2129 23.3946 14.5749C23.3553 14.9369 23.2018 15.277 22.9562 15.5458C22.7106 15.8147 22.3857 15.9982 22.0287 16.0699C21.6717 16.1416 21.3011 16.0977 20.9708 15.9445L17.6898 17.8385V23.1983C17.6898 23.3279 17.6643 23.4563 17.6147 23.576C17.5651 23.6958 17.4924 23.8046 17.4007 23.8962C17.3091 23.9879 17.2003 24.0606 17.0805 24.1102C16.9608 24.1598 16.8325 24.1853 16.7028 24.1853C16.5732 24.1853 16.4449 24.1598 16.3251 24.1102C16.2054 24.0606 16.0966 23.9879 16.0049 23.8962C15.9133 23.8046 15.8406 23.6958 15.791 23.576C15.7414 23.4563 15.7159 23.3279 15.7159 23.1983V17.8364L12.436 15.9424C12.1054 16.0959 11.7346 16.14 11.3773 16.0683C11.02 15.9967 10.6948 15.8131 10.4489 15.5441C10.2031 15.2751 10.0493 14.9348 10.01 14.5725C9.97069 14.2102 10.0478 13.8448 10.2303 13.5294C10.4127 13.2139 10.6909 12.9648 11.0245 12.8182C11.3582 12.6715 11.7298 12.6351 12.0856 12.714C12.4413 12.7929 12.7627 12.9832 13.003 13.2572C13.2433 13.5311 13.39 13.8745 13.4219 14.2376L15.7159 15.5643V12.1181C15.4178 11.9084 15.1942 11.6092 15.0777 11.2639C14.9611 10.9186 14.9575 10.5451 15.0675 10.1977C15.1775 9.85018 15.3953 9.54678 15.6894 9.33143C15.9834 9.11609 16.3384 9 16.7028 9C17.0673 9 17.4223 9.11609 17.7163 9.33143C18.0104 9.54678 18.2282 9.85018 18.3381 10.1977C18.4481 10.5451 18.4446 10.9186 18.328 11.2639C18.2114 11.6092 17.9879 11.9084 17.6898 12.1181" fill="white"/>
</svg>
